<svg width="22" height="17" viewBox="0 0 22 17" fill="none" xmlns="http://www.w3.org/2000/svg">
<path d="M17.7787 0.565918H3.63584C1.90009 0.565918 0.492981 1.97302 0.492981 3.70878V13.1373C0.492981 14.8731 1.90009 16.2802 3.63584 16.2802H17.7787C19.5145 16.2802 20.9216 14.8731 20.9216 13.1373V3.70878C20.9216 1.97302 19.5145 0.565918 17.7787 0.565918Z" stroke="black" stroke-linecap="round" stroke-linejoin="round"/>
<path d="M8.05153 12.0688V5.46878C8.04826 5.35735 8.07543 5.24714 8.13013 5.15001C8.18483 5.05288 8.26499 4.97251 8.36198 4.91755C8.45897 4.86259 8.56911 4.83512 8.68054 4.83811C8.79198 4.8411 8.90049 4.87442 8.99439 4.93449L14.6515 8.23449C14.7461 8.28995 14.8244 8.36916 14.8789 8.46426C14.9334 8.55936 14.962 8.66705 14.962 8.77664C14.962 8.88623 14.9334 8.99391 14.8789 9.08901C14.8244 9.18411 14.7461 9.26332 14.6515 9.31878L8.99439 12.6188C8.89842 12.6742 8.78951 12.7033 8.67869 12.703C8.56787 12.7028 8.45909 12.6732 8.36336 12.6174C8.26764 12.5615 8.18838 12.4814 8.13362 12.385C8.07886 12.2887 8.05054 12.1796 8.05153 12.0688Z" stroke="black" stroke-linecap="round" stroke-linejoin="round"/>
</svg>
